<?xml version="1.0" encoding="utf-8"?>
<!-- Generator: Adobe Illustrator 17.1.0, SVG Export Plug-In . SVG Version: 6.00 Build 0)  -->
<!DOCTYPE svg PUBLIC "-//W3C//DTD SVG 1.1//EN" "http://www.w3.org/Graphics/SVG/1.1/DTD/svg11.dtd">
<svg version="1.1" xmlns="http://www.w3.org/2000/svg" xmlns:xlink="http://www.w3.org/1999/xlink" x="0px" y="0px" width="230px" height="230px"
	 viewBox="0 0 230 230" enable-background="new 0 0 230 230" xml:space="preserve">
	<g extraneous="self">
		<g id="Bg" display="none">
		</g>
		<g id="Graphics">
			<g>
				<rect x="0" y="0" display="none" fill="#E6E9EC" width="230" height="230"/>
				<g id="No_Messages_1_">
					<g>
						<path fill="#FFFFFF" d="M111.3,163.1c-0.7,0-1.4-0.1-2.1-0.3l-11.5-3.4c-1.9-0.6-3.5-1.9-4.5-3.6S92,152,92.6,150l15.5-51.8
							c0-0.1,0.1-0.2,0.3-0.3l9.3-4.3c0.9-0.4,1.6-1.2,1.9-2.2l4.8-15.9l8.6,2.6L128.1,94c-0.3,1-0.1,2,0.4,2.8l5.4,8.7
							c0.1,0.1,0.1,0.3,0.1,0.4l-15.5,51.8C117.5,160.9,114.6,163.1,111.3,163.1C111.3,163.1,111.3,163.1,111.3,163.1z"/>
						<path fill="#005E93" d="M125.3,77.3l5.7,1.7l-4.3,14.5c-0.4,1.4-0.2,2.8,0.5,4.1l5.2,8.3L117,157.3c-0.8,2.5-3.1,4.3-5.7,4.3
							c-0.6,0-1.2-0.1-1.7-0.3l-11.5-3.4c-3.2-0.9-5-4.3-4-7.5l15.4-51.4l8.9-4.1c1.3-0.6,2.3-1.7,2.7-3.1L125.3,77.3 M123.3,73.6
							L118.1,91c-0.2,0.5-0.6,1-1.1,1.2l-9.3,4.3c-0.5,0.2-0.9,0.7-1.1,1.2l-15.5,51.8c-1.4,4.8,1.3,9.8,6,11.2l11.5,3.4
							c0.9,0.3,1.7,0.4,2.6,0.4c3.9,0,7.5-2.5,8.6-6.4l15.5-51.8c0.2-0.5,0.1-1.1-0.2-1.6l-5.4-8.7c-0.3-0.5-0.4-1.1-0.2-1.6
							l5.2-17.3L123.3,73.6L123.3,73.6z"/>
					</g>
					<path fill="#005E93" d="M134.9,80.2l-13.4-4c-0.5-0.2-0.8-0.7-0.7-1.2l0.3-1c0.2-0.5,0.7-0.8,1.2-0.7l13.4,4
						c0.5,0.2,0.8,0.7,0.7,1.2l-0.3,1C136,80.1,135.4,80.4,134.9,80.2z"/>
					<path fill="#00A0DC" d="M132.9,69.2l-3.8-1.1c-1.1-0.3-2.2,0.3-2.5,1.3l-1.4,4.8l7.7,2.3l1.4-4.8
						C134.6,70.6,134,69.5,132.9,69.2z"/>

						<rect x="123.7" y="78" transform="matrix(0.9582 0.2862 -0.2862 0.9582 29.059 -32.8011)" fill="#00A0DC" width="6" height="10"/>
					<g>
						<path fill="#FFFFFF" d="M115.1,139.5c0,0-0.1,0-0.1,0l-9.4-2.8c-0.2-0.1-0.3-0.2-0.3-0.3c0-0.1-0.1-0.2,0-0.4l5.7-15.8
							c0-0.1,0.1-0.2,0.1-0.3l4.5-18.3c0.1-0.3,0.3-0.4,0.5-0.4c0,0,0.1,0,0.1,0l9.4,2.8c0.2,0.1,0.3,0.2,0.3,0.3
							c0,0.1,0.1,0.2,0,0.4l-6.2,17.8c0,0.1-0.1,0.2-0.1,0.3l-4,16.3C115.5,139.4,115.3,139.5,115.1,139.5z"/>
						<path fill="#005E93" d="M116.7,103l7.4,2.2l-5.9,16.8c-0.1,0.2-0.1,0.3-0.1,0.5l-3.7,15.3l-7.4-2.2l5.3-14.8
							c0.1-0.2,0.1-0.3,0.1-0.5L116.7,103 M116,99.7c-0.9,0-1.7,0.6-1.9,1.5l-4.5,18.3c0,0.1,0,0.1-0.1,0.2l-5.7,15.8
							c-0.4,1.1,0.2,2.3,1.3,2.6l9.4,2.8c0.2,0.1,0.4,0.1,0.6,0.1c0.9,0,1.7-0.6,1.9-1.5l4-16.3c0-0.1,0-0.1,0.1-0.2l6.2-17.8
							c0.4-1.1-0.2-2.3-1.3-2.6l-9.4-2.8C116.4,99.7,116.2,99.7,116,99.7L116,99.7z"/>
					</g>
					<g>

							<rect x="108.3" y="119.3" transform="matrix(0.9582 0.2862 -0.2862 0.9582 39.5502 -27.9204)" fill="#00A0DC" width="14" height="4"/>
					</g>
					<rect x="15" y="136" fill="#005E93" width="200" height="3"/>
					<g>
						<path fill="#9BDAF3" d="M37.5,95.5l-5.3-0.3c-0.1,0-0.2,0-0.3-0.1c-3.7-1.1-6.3-4.7-6.3-8.9c0-5.1,3.8-9.2,8.5-9.2
							c1.4,0,2.8,0.4,4.1,1.2c1.2-5.6,5.6-9.7,11.7-10.7c0.7-0.1,1.4-0.2,2-0.2c5.4,0,9.2,3.5,11.1,5.9c1.6-1.7,4.3-2.7,7.3-2.7
							c5.9,0,12.3,4,12.3,12.7c0,6.3-4.3,11.5-10.1,12c0,0-0.1,0-0.1,0c0,0-7,0-7,0H37.5z"/>
						<g>
							<path fill="#005E93" d="M51.8,68.9c5.1,0,8.8,3.8,10.3,5.8c0.2,0.3,0.5,0.4,0.8,0.4c0.3,0,0.6-0.1,0.8-0.4
								c1.3-1.6,3.8-2.5,6.5-2.5c5,0,10.8,3.2,10.8,11.2c0,5.5-3.8,10-8.7,10.5l-7,0H37.5l-5.2-0.3c-3-0.9-5.2-3.8-5.2-7.4
								c0-4.2,3.1-7.7,7-7.7c1.4,0,2.7,0.5,3.8,1.3c0.2,0.1,0.4,0.2,0.6,0.2c0.5,0,0.9-0.3,1-0.8c0.9-5.7,5.2-9.3,10.6-10.2
								C50.6,69,51.2,68.9,51.8,68.9 M51.8,65.9L51.8,65.9c-0.8,0-1.5,0.1-2.3,0.2c-6,1-10.6,4.8-12.4,10.1c-1-0.4-2-0.5-3.1-0.5
								c-5.5,0-10,4.8-10,10.7c0,4.8,3,9.1,7.4,10.3c0.2,0.1,0.4,0.1,0.7,0.1l5.2,0.3c0.1,0,0.1,0,0.2,0h27.9l7,0c0.1,0,0.2,0,0.3,0
								C79.1,96.3,84,90.5,84,83.4c0-9.8-7.1-14.2-13.8-14.2c-2.7,0-5.3,0.7-7.1,2.1C60.8,68.8,56.9,65.9,51.8,65.9L51.8,65.9z"/>
						</g>
					</g>
					<g>
						<path fill="#FFFFFF" d="M64.1,101.5l-4.5,0c0,0-0.1,0-0.1,0c-4-0.4-6.9-3.9-6.9-8.2c0-6,4.4-8.7,8.4-8.7
							c1.8,0,3.5,0.5,4.6,1.5c1.3-1.5,3.8-3.6,7.2-3.6c0.5,0,0.9,0,1.4,0.1c3.8,0.6,6.8,3.1,7.8,6.6c0.7-0.3,1.5-0.5,2.3-0.5
							c3.3,0,6,2.9,6,6.4c0,2.9-1.8,5.5-4.4,6.2c-0.1,0-0.2,0-0.3,0.1c0,0-3.4,0.2-3.4,0.2H64.1z"/>
						<g>
							<path fill="#005E93" d="M72.7,83.9c0.4,0,0.8,0,1.1,0.1c3.3,0.6,6,2.7,6.7,6.1c0.1,0.5,0.5,0.8,1,0.8c0.2,0,0.3,0,0.5-0.1
								c0.6-0.4,1.3-0.6,2.1-0.6c2.5,0,4.5,2.2,4.5,4.9c0,2.3-1.4,4.2-3.4,4.8l-3.4,0.2H64.1l-4.5,0c-3.1-0.3-5.6-3.2-5.6-6.8
								c0-5.2,3.7-7.2,6.9-7.2c1.6,0,3.1,0.5,3.9,1.4c0.2,0.2,0.5,0.3,0.8,0.3c0.3,0,0.6-0.1,0.8-0.4C67.5,86,69.7,83.9,72.7,83.9
								 M72.7,80.9c-2.7,0-5.2,1.1-7.4,3.1c-1.3-0.7-2.8-1-4.4-1c-2.5,0-4.9,0.9-6.6,2.4c-1.5,1.3-3.3,3.7-3.3,7.8
								c0,5.1,3.6,9.3,8.3,9.7c0.1,0,0.2,0,0.3,0l4.5,0l17.9,0c0.1,0,0.1,0,0.2,0l3.4-0.2c0.2,0,0.5,0,0.7-0.1
								c3.3-0.9,5.5-4.1,5.5-7.6c0-4.4-3.4-7.9-7.5-7.9c-0.5,0-0.9,0-1.4,0.1c-1.5-3.3-4.6-5.6-8.4-6.2C73.8,81,73.3,80.9,72.7,80.9
								L72.7,80.9z"/>
						</g>
					</g>
					<g>
						<path fill="#9BDAF3" d="M159,119.5l-4.1-0.2c-0.1,0-0.2,0-0.3-0.1c-3-0.9-5.1-3.8-5.1-7.1c0-4.1,3.1-7.4,6.8-7.4
							c1,0,2,0.2,2.9,0.7c1.1-4.2,4.5-7.2,9.1-7.9c0.5-0.1,1.1-0.1,1.6-0.1c4,0,6.9,2.5,8.5,4.4c1.3-1.2,3.3-1.9,5.5-1.9
							c4.7,0,9.7,3.1,9.7,10.1c0,5-3.4,9.1-8,9.5c0,0-0.1,0-0.1,0c0,0-5.3,0-5.3,0H159z"/>
						<path fill="#005E93" d="M169.9,98.9c3.8,0,6.5,2.7,7.7,4.3c0.2,0.2,0.5,0.4,0.7,0.4c0.3,0,0.6-0.1,0.8-0.4
							c1-1.1,2.8-1.8,4.8-1.8c3.8,0,8.2,2.4,8.2,8.6c0,4.2-2.9,7.6-6.6,8l-5.3,0H159l-4-0.2c-2.3-0.7-4-2.9-4-5.6
							c0-3.2,2.4-5.9,5.3-5.9c1,0,1.9,0.3,2.7,0.8c0.2,0.1,0.4,0.2,0.5,0.2c0.4,0,0.8-0.3,0.9-0.8c0.8-4.1,4-6.8,8-7.5
							C169,98.9,169.4,98.9,169.9,98.9 M169.9,95.9L169.9,95.9c-0.6,0-1.2,0.1-1.9,0.2c-4.6,0.8-8.2,3.5-9.8,7.5
							c-0.6-0.2-1.3-0.2-1.9-0.2c-4.6,0-8.3,4-8.3,8.9c0,4,2.5,7.5,6.2,8.5c0.2,0.1,0.4,0.1,0.7,0.1l4,0.2c0.1,0,0.1,0,0.2,0h21.2
							l5.3,0c0.1,0,0.2,0,0.3,0c5.3-0.5,9.3-5.3,9.3-11c0-7.9-5.8-11.6-11.2-11.6c-2,0-3.9,0.5-5.3,1.4
							C176.7,97.9,173.7,95.9,169.9,95.9L169.9,95.9z"/>
					</g>
					<path fill="none" stroke="#005E93" stroke-width="3" stroke-linejoin="round" stroke-miterlimit="10" d="M173.4,72.8
						c0,0,6-5,11,0c0,0,5-5,10,0"/>
					<path fill="none" stroke="#005E93" stroke-width="3" stroke-linejoin="round" stroke-miterlimit="10" d="M155.4,80.6
						c0,0,6-5,11,0c0,0,5-5,10,0"/>
					<path fill="#9BDAF3" d="M97.5,139L94,150.5c-0.9,3.2,0.9,6.5,4,7.5l11.5,3.4c0.6,0.2,1.1,0.3,1.7,0.3c2.6,0,5-1.8,5.7-4.3
						l5.5-18.3H97.5z"/>
				</g>
			</g>
		</g>
		<g id="Copy">
		</g>
	</g>
</svg>
