<?xml version="1.0" encoding="UTF-8"?>
<svg width="230px" height="230px" viewBox="0 0 230 140" version="1.1" xmlns="http://www.w3.org/2000/svg" xmlns:xlink="http://www.w3.org/1999/xlink">
    <g stroke="none" stroke-width="1" fill="none" fill-rule="evenodd">
        <g transform="translate(40.000000, 19.000000)">
            <path d="M152.9,22.9 L100.7,8.9 C99.6,8.6 98.5,9.2 98.3,10.3 L80.2,77.9 C79.9,79 80.5,80.1 81.6,80.3 L133.8,94.3 C134.9,94.6 136,94 136.2,92.9 L154.3,25.3 C154.6,24.3 153.9,23.2 152.9,22.9 L152.9,22.9 Z" fill="#FFFFFF"></path>
            <path d="M100.2,8.8 C99.3,8.8 98.5,9.4 98.3,10.3 L80.2,77.9 C79.9,79 80.5,80.1 81.6,80.3 L133.8,94.3 C134,94.3 134.1,94.4 134.3,94.4 C135.2,94.4 136,93.8 136.2,92.9 L154.3,25.3 C154.6,24.2 154,23.1 152.9,22.9 L100.7,8.9 C100.5,8.9 100.4,8.8 100.2,8.8 M100.9,12.1 L151.1,25.6 L133.5,91.3 L83.3,77.8 L100.9,12.1" fill="#005E93"></path>
            <polygon fill="#9BDAF3" points="116.9091 25.6842 130.4321 29.3072 128.8791 35.1032 115.3561 31.4792"></polygon>
            <polygon fill="#9BDAF3" points="132.4178 29.7969 145.9408 33.4199 144.3878 39.2159 130.8648 35.5919"></polygon>
            <polygon fill="#9BDAF3" points="114.6066 34.3914 128.1296 38.0144 126.5766 43.8104 113.0536 40.1864"></polygon>
            <polygon fill="#9BDAF3" points="130.0187 38.4782 143.5417 42.1012 141.9887 47.8972 128.4657 44.2732"></polygon>
            <polygon fill="#9BDAF3" points="112.2074 43.0727 125.7304 46.6957 124.1774 52.4917 110.6544 48.8677"></polygon>
            <polygon fill="#9BDAF3" points="127.7162 47.1854 141.2392 50.8084 139.6862 56.6044 126.1632 52.9804"></polygon>
            <polygon fill="#9BDAF3" points="109.9049 51.7799 123.4279 55.4029 121.8749 61.1989 108.3519 57.5749"></polygon>
            <polygon fill="#9BDAF3" points="125.4137 55.8925 138.9367 59.5155 137.3837 65.3115 123.8607 61.6875"></polygon>
            <polygon fill="#9BDAF3" points="107.6025 60.4871 121.1255 64.1101 119.5725 69.9061 106.0495 66.2821"></polygon>
            <polygon fill="#9BDAF3" points="123.0147 64.5739 136.5377 68.1969 134.9847 73.9929 121.4617 70.3689"></polygon>
            <polygon fill="#9BDAF3" points="105.3 69.1942 118.823 72.8172 117.27 78.6132 103.747 74.9892"></polygon>
            <polygon fill="#9BDAF3" points="101.5227 21.5008 115.0457 25.1238 113.4927 30.9198 99.9697 27.2958"></polygon>
            <polygon fill="#9BDAF3" points="99.1237 30.1821 112.6467 33.8051 111.0937 39.6011 97.5707 35.9771"></polygon>
            <polygon fill="#9BDAF3" points="96.8212 38.8893 110.3442 42.5123 108.7912 48.3083 95.2682 44.6843"></polygon>
            <polygon fill="#9BDAF3" points="94.5186 47.5965 108.0416 51.2195 106.4886 57.0155 92.9656 53.3915"></polygon>
            <polygon fill="#9BDAF3" points="92.1196 56.2778 105.6426 59.9008 104.0896 65.6968 90.5666 62.0728"></polygon>
            <polygon fill="#9BDAF3" points="89.8171 64.985 103.3401 68.608 101.7871 74.404 88.2641 70.78"></polygon>
            <polygon fill="#9BDAF3" points="120.7121 73.2811 134.2351 76.9041 132.6821 82.7001 119.1591 79.0761"></polygon>
            <path d="M53.9,8 L1.8,22 C0.7,22.3 0.1,23.4 0.4,24.4 L18.5,92 C18.8,93.1 19.9,93.7 20.9,93.4 L73.1,79.4 C74.2,79.1 74.8,78 74.5,77 L56.4,9.5 C56.1,8.4 55,7.8 53.9,8" fill="#FFFFFF"></path>
            <path d="M54.4,8 C54.2,8 54.1,8 53.9,8.1 L1.8,22 C0.7,22.3 0.1,23.4 0.4,24.4 L18.5,92 C18.7,92.9 19.5,93.5 20.4,93.5 C20.6,93.5 20.7,93.5 20.9,93.4 L73.1,79.4 C74.2,79.1 74.8,78 74.5,77 L56.4,9.5 C56.1,8.6 55.3,8 54.4,8 M53.7,11.2 L71.3,76.9 L21.1,90.4 L3.5,24.7 L53.7,11.2" fill="#005E93"></path>
            <polygon fill="#9BDAF3" points="13.8946 36.3464 30.3146 31.9464 31.0916 34.8444 14.6706 39.2444"></polygon>
            <polygon fill="#9BDAF3" points="15.4578 42.1619 52.1618 32.3279 52.9388 35.2249 16.2338 45.0599"></polygon>
            <polygon fill="#9BDAF3" points="16.9606 47.9753 53.6646 38.1413 54.4416 41.0383 17.7366 50.8733"></polygon>
            <polygon fill="#9BDAF3" points="18.56 53.7629 55.264 43.9289 56.041 46.8259 19.336 56.6609"></polygon>
            <polygon fill="#9BDAF3" points="20.0629 59.5763 56.7669 49.7423 57.5439 52.6393 20.8389 62.4743"></polygon>
            <polygon fill="#9BDAF3" points="21.6623 65.3639 58.3663 55.5299 59.1433 58.4269 22.4383 68.2619"></polygon>
            <polygon fill="#9BDAF3" points="23.2415 71.1507 53.1845 63.1277 53.9605 66.0257 24.0175 74.0487"></polygon>
            <path d="M109,5 L41,5 C39.9,5 39,5.9 39,7 L39,95 C39,96.1 39.9,97 41,97 L109,97 C110.1,97 111,96.1 111,95 L111,7 C111,5.9 110.1,5 109,5" fill="#FFFFFF"></path>
            <path d="M109,5 L41,5 C39.9,5 39,5.9 39,7 L39,95 C39,96.1 39.9,97 41,97 L109,97 C110.1,97 111,96.1 111,95 L111,7 C111,5.9 110.1,5 109,5 L109,5 Z M42,94 L108,94 L108,8 L42,8 L42,94 Z" fill="#005E93"></path>
            <path d="M90,2 L90,18 C90,18 90.9,20 92,20 L98,20 C99.1,20 100,18 100,18 L100,13.6 L97,13.6 L97,16.6 L93,16.6 L93,3 L97,3 L97,8 L100,8 L100,2 C100,0.9 99.1,0 98,0 L92,0 C90.9,0 90,0.9 90,2" fill="#005E93"></path>
            <path d="M97,34 L53,34 C51.9,34 51,34.9 51,36 L51,66 C51,67.1 51.9,68 53,68 L97,68 C98.1,68 99,67.1 99,66 L99,36 C99,34.9 98.1,34 97,34" fill="#00A0DC"></path>
            <path d="M57,61 L67.5,46.1 C68.2,45 69.8,45 70.6,45.9 L75.5,51.4 C76.3,52.3 77.6,52.3 78.4,51.5 L80.4,49.5 C81.2,48.7 82.6,48.7 83.3,49.6 L93,61 L57,61 Z" fill="#FFFFFF"></path>
            <path d="M79,40 C80.657,40 82,41.343 82,43 C82,44.657 80.657,46 79,46 C77.343,46 76,44.657 76,43 C76,41.343 77.343,40 79,40" fill="#FFFFFF"></path>
        </g>
    </g>
</svg>