<svg xmlns="http://www.w3.org/2000/svg" width="230" height="230" id="deserted-island-large" data-supported-dps="230x230">
  <path fill="#0A9FDB" d="M34 168h11v3H34zM57 182h24v3H57zM121 183h19v3h-19zM88 169h28v3H88zM144 166h13v3h-13zM176 172h20v3h-20z"/>
  <path fill="#005E93" d="M15 158h200v3H15z"/>
  <path fill="#FFF" d="M93.895 147.5l3.823-65h4.171l3.824 65z"/>
  <path fill="#005E93" d="M100.475 84l3.647 62h-8.637l3.647-62h1.343m2.828-3h-7l-4 68h15l-4-68z"/>
  <path fill="none" stroke="#005E93" stroke-width="3" stroke-linejoin="round" stroke-miterlimit="10" d="M100 88.5h-4M101 114.5h-6M103 127.5h-5M102 140.5h-8"/>
  <path fill="#9DDAF3" d="M138.933 90.5a.657.657 0 01-.184-.029l-15.412-4.595-2.468-3.292-4.093 1.637-15.645-3.583c5.479-3.076 10.525-5.448 16.217-5.448 1.853 0 3.685.245 5.6.748 6.671 1.752 11.594 5.843 16.459 13.678a.53.53 0 01.019.57c-.084.152-.258.314-.493.314z"/>
  <path fill="#005E93" d="M117.349 76.692c1.722 0 3.428.228 5.218.698 5.653 1.485 9.996 4.799 14.202 10.926l-12.529-3.735-1.482-1.976-1.379-1.839-2.135.854-2.59 1.036-11.284-2.584c3.991-2.005 7.842-3.38 11.979-3.38m-.001-3c-7.192 0-13.309 3.516-20.293 7.553l19.843 4.544 3.46-1.384 2.076 2.768 15.886 4.736c.209.062.414.091.612.091 1.535 0 2.641-1.74 1.749-3.175-4.153-6.688-9.166-12.187-17.353-14.337-2.093-.55-4.074-.797-5.98-.796z"/>
  <g>
    <path fill="#9DDAF3" d="M99.569 78.559c1.805-8.166 3.96-14.713 11.041-19.396 3.965-2.622 8.39-3.896 13.529-3.896 2.283 0 4.782.244 7.639.746a.543.543 0 01.462.458.55.55 0 01-.264.602l-13.699 8.424-4.099-.354-1.508 4.141-13.101 9.275z"/>
    <path fill="#005E93" d="M124.139 56.767c1.518 0 3.14.113 4.913.344l-11.139 6.85-2.461-.213-2.291-.198-.787 2.16-.954 2.621-9.452 6.69c1.635-6.051 3.99-10.985 9.469-14.607 3.764-2.488 7.8-3.647 12.702-3.647m0-3c-4.936 0-9.728 1.085-14.357 4.145C101.167 63.61 99.387 72.01 97.303 82l16.615-11.761 1.275-3.502 3.447.298 14.121-8.684c1.625-.999 1.155-3.486-.724-3.816-2.671-.469-5.304-.768-7.898-.768z"/>
  </g>
  <g>
    <path fill="#9DDAF3" d="M87.617 67.588l-.69-4.354-4.092-.434-11.841-10.881a.55.55 0 01-.146-.636.544.544 0 01.529-.367c9.236.166 15.27 2.298 20.192 7.129 6.058 5.947 6.925 12.785 7.14 21.145L87.617 67.588z"/>
    <path fill="#005E93" d="M73.859 52.515c7.416.474 12.488 2.505 16.659 6.6 4.687 4.601 6.058 9.893 6.509 16.145l-8.002-8.37-.437-2.755-.36-2.271-2.286-.243-2.456-.261-9.627-8.845m-2.483-3.1c-1.88 0-2.792 2.326-1.398 3.608L82.183 64.24l3.441.365.584 3.68L100.276 83c-.14-10.204-.285-18.789-7.657-26.026-6.04-5.93-13.33-7.418-21.202-7.559h-.041z"/>
  </g>
  <g>
    <path fill="#9DDAF3" d="M61.371 89.5c-.235 0-.409-.162-.493-.313a.528.528 0 01.019-.57c4.866-7.835 9.788-11.926 16.459-13.678 1.916-.503 3.747-.748 5.6-.748 5.692 0 10.738 2.372 16.217 5.448l-15.645 3.583-4.092-1.637-2.468 3.292-15.412 4.595a.699.699 0 01-.185.028z"/>
    <path fill="#005E93" d="M82.955 75.692c4.137 0 7.987 1.375 11.978 3.379l-11.284 2.584-2.59-1.036-2.135-.854-1.379 1.839-1.482 1.976-12.529 3.735c4.206-6.127 8.549-9.441 14.202-10.926 1.79-.469 3.497-.697 5.219-.697m0-3c-1.906 0-3.887.247-5.981.797-8.187 2.15-13.199 7.649-17.353 14.337-.89 1.435.216 3.174 1.75 3.174.198 0 .403-.029.612-.091l15.886-4.736 2.076-2.768 3.46 1.384 19.843-4.544c-6.983-4.037-13.101-7.553-20.293-7.553z"/>
  </g>
  <g>
    <path fill="#FFF" d="M102.424 88.258a5.385 5.385 0 01-5.379-5.379c0-2.966 2.413-5.379 5.379-5.379s5.379 2.413 5.379 5.379a5.384 5.384 0 01-5.379 5.379z"/>
    <path fill="#005E93" d="M102.424 79a3.883 3.883 0 013.879 3.879 3.883 3.883 0 01-3.879 3.879 3.883 3.883 0 01-3.879-3.879A3.883 3.883 0 01102.424 79m0-3a6.88 6.88 0 100 13.758 6.88 6.88 0 000-13.758z"/>
  </g>
  <g>
    <path fill="#FFF" d="M95.183 93.5a5.385 5.385 0 01-5.379-5.379 5.385 5.385 0 015.379-5.379 5.385 5.385 0 015.379 5.379 5.385 5.385 0 01-5.379 5.379z"/>
    <path fill="#005E93" d="M95.183 84.242a3.883 3.883 0 013.879 3.879A3.883 3.883 0 0195.183 92a3.883 3.883 0 01-3.879-3.879 3.883 3.883 0 013.879-3.879m0-3a6.88 6.88 0 100 13.758 6.88 6.88 0 000-13.758z"/>
  </g>
  <g>
    <path fill="none" stroke="#005E93" stroke-width="3" stroke-linecap="round" stroke-miterlimit="10" d="M164.093 98.753l-25.217 56.64"/>
    <path fill="#005E93" d="M160.436 102.092c-10.68-3.782-22.53.768-27.708 10.91a.697.697 0 00.332.954c.1.044.213.066.335.056l2.295-.185a8.94 8.94 0 018.045 3.782l1.665 2.376.636-.028a17.889 17.889 0 0114.256 6.084l.826.943.073-.012a12.183 12.183 0 017.012.881 12.176 12.176 0 014.728 3.735l.056.073a.667.667 0 00.257.205.677.677 0 00.903-.38c4.095-10.639-.448-22.505-10.407-27.921l-3.304-1.473z"/>
    <path fill="#FFF" d="M141.268 111.831a11.983 11.983 0 00-3.587-.964c4.364-5.354 11.246-7.994 18.033-7.027-3.126 1.799-6.837 5.102-10.252 11.144a11.926 11.926 0 00-4.194-3.153z"/>
    <path fill="#9DDAF3" d="M161.491 105.845c1.112 2.438 2.701 7.778-.3 16.836a20.71 20.71 0 00-5.858-3.935 21.004 21.004 0 00-7.555-1.779c4.546-8.328 9.438-10.821 12.445-11.685l1.268.563z"/>
    <path fill="#0A9FDB" d="M169.425 125.111a15.152 15.152 0 00-5.456-1.289c2.327-6.929 2.254-12.122 1.524-15.673 5.458 4.498 8.136 11.653 6.86 18.683a15.27 15.27 0 00-2.928-1.721z"/>
  </g>
  <g>
    <path fill="#9DDAF3" d="M164.422 81.5l-4.549-.032-.068-.007c-3.955-.394-6.938-3.938-6.938-8.245 0-5.985 4.359-8.711 8.409-8.711 1.82 0 3.479.532 4.634 1.473 1.332-1.49 3.802-3.572 7.193-3.572.46 0 .929.04 1.393.117 3.834.639 6.758 3.14 7.777 6.595a5.545 5.545 0 012.258-.484c3.291 0 5.969 2.886 5.969 6.433 0 2.904-1.825 5.454-4.439 6.202l-.164.047-3.561.185h-17.914z"/>
    <path fill="#005E93" d="M173.104 63.906c.37 0 .751.03 1.145.096 3.302.55 5.985 2.718 6.724 6.078a.98.98 0 001.466.64 4.047 4.047 0 012.093-.587c2.468 0 4.469 2.209 4.469 4.933 0 2.296-1.428 4.209-3.352 4.759l-3.352.175h-17.875l-4.469-.031c-3.131-.312-5.586-3.214-5.586-6.752 0-5.156 3.681-7.211 6.909-7.211 1.584 0 3.06.495 3.937 1.361.215.212.489.321.759.321.28 0 .555-.117.754-.358 1.112-1.348 3.321-3.424 6.378-3.424m0-3c-2.658 0-5.235 1.104-7.408 3.143-1.264-.674-2.795-1.043-4.419-1.043-2.503 0-4.862.858-6.641 2.414-1.491 1.305-3.269 3.716-3.269 7.797 0 5.081 3.563 9.267 8.289 9.738l.138.014.139.001 4.468.03h17.974l.078-.004 3.352-.174.341-.018.328-.094c3.254-.93 5.527-4.074 5.527-7.644 0-4.375-3.35-7.933-7.469-7.933-.455 0-.907.045-1.352.133-1.493-3.266-4.564-5.577-8.437-6.223a9.997 9.997 0 00-1.639-.137z"/>
  </g>
  <g>
    <path fill="#FFF" d="M52.173 159.5c2.577-6.368 11.792-25.931 27.705-25.931.344 0 .693.009 1.044.027 9.934.521 14.887 3.451 20.131 6.554 4.47 2.645 9.092 5.379 16.761 6.338 1.249.156 2.593.232 4.109.232 3.31 0 6.9-.366 10.701-.754 4.235-.431 8.614-.877 13.101-.877 9.341 0 21.183 1.701 31.282 14.41H52.173z"/>
    <path fill="#005E93" d="M79.877 135.069c.318 0 .642.008.966.025 9.566.501 14.365 3.34 19.446 6.346 4.602 2.723 9.36 5.538 17.339 6.536a34.45 34.45 0 004.295.243c3.387 0 7.014-.37 10.854-.761 4.198-.428 8.538-.87 12.948-.87 8.358 0 18.793 1.412 28.024 11.41H54.431c3.318-7.47 11.828-22.93 25.446-22.929m.001-3C59.642 132.067 50 161 50 161h130c-10.113-14.372-22.494-17.41-34.275-17.41-8.631 0-16.941 1.631-23.802 1.631-1.368 0-2.678-.065-3.923-.22-16-2-17.921-11.903-37-12.901a20.221 20.221 0 00-1.122-.031z"/>
  </g>
</svg>
